<svg width="17" height="16" viewBox="0 0 17 16" fill="none" xmlns="http://www.w3.org/2000/svg">
<g clip-path="url(#clip0_396_3732)">
<path fill-rule="evenodd" clip-rule="evenodd" d="M12.144 0.666687C12.4976 0.666687 12.8368 0.80716 13.0868 1.05721L14.9724 2.94283C15.2225 3.19288 15.363 3.53201 15.363 3.88564V13.3334C15.363 14.438 14.4676 15.3334 13.363 15.3334H2.69629C1.59172 15.3334 0.696289 14.438 0.696289 13.3334V2.66669C0.696289 1.56212 1.59172 0.666687 2.69629 0.666687H12.144ZM2.69629 2.00002C2.3281 2.00002 2.02962 2.2985 2.02962 2.66669V13.3334C2.02962 13.7016 2.3281 14 2.69629 14H3.36296V10C3.36296 8.89542 4.25839 8.00002 5.36296 8.00002H10.6963C11.8009 8.00002 12.6963 8.89542 12.6963 10V14H13.363C13.7312 14 14.0296 13.7016 14.0296 13.3334V4.55231C14.0296 4.19868 13.8892 3.85955 13.6391 3.60949L12.4202 2.39055C12.1701 2.14049 11.831 2.00002 11.4774 2.00002H11.363V3.33335C11.363 4.43792 10.4676 5.33335 9.36296 5.33335H6.69629C5.59172 5.33335 4.69629 4.43792 4.69629 3.33335V2.00002H2.69629ZM11.363 14V10C11.363 9.63182 11.0645 9.33335 10.6963 9.33335H5.36296C4.99477 9.33335 4.69629 9.63182 4.69629 10V14H11.363ZM6.02962 2.00002H10.0296V3.33335C10.0296 3.70154 9.73116 4.00002 9.36296 4.00002H6.69629C6.3281 4.00002 6.02962 3.70154 6.02962 3.33335V2.00002Z" fill="#0F0F0F"/>
</g>
<defs>
<clipPath id="clip0_396_3732">
<rect width="16" height="16" fill="white" transform="translate(0.0292969)"/>
</clipPath>
</defs>
</svg>
