<svg width="18" height="18" viewBox="0 0 18 18" fill="none" xmlns="http://www.w3.org/2000/svg">
<path d="M10.5593 1.12509C10.6784 1.1251 10.7944 1.1629 10.8907 1.23305C10.9869 1.3032 11.0584 1.40209 11.0948 1.51547L11.7136 3.43809C11.9734 3.56522 12.2221 3.70809 12.4594 3.86897L14.4349 3.44372C14.5514 3.41885 14.6728 3.43159 14.7815 3.48011C14.8903 3.52864 14.9809 3.61043 15.0402 3.71372L16.5994 6.41259C16.659 6.51582 16.6842 6.63529 16.6715 6.75377C16.6587 6.87225 16.6087 6.98363 16.5286 7.07184L15.1729 8.56809C15.1927 8.855 15.1927 9.14293 15.1729 9.42984L16.5286 10.9283C16.6087 11.0166 16.6587 11.1279 16.6715 11.2464C16.6842 11.3649 16.659 11.4844 16.5994 11.5876L15.0402 14.2876C14.9807 14.3907 14.8901 14.4722 14.7813 14.5205C14.6726 14.5689 14.5513 14.5814 14.4349 14.5565L12.4594 14.1312C12.2232 14.291 11.9734 14.435 11.7147 14.5621L11.0948 16.4847C11.0584 16.5981 10.9869 16.697 10.8907 16.7671C10.7944 16.8373 10.6784 16.8751 10.5593 16.8751H7.44081C7.32172 16.8751 7.2057 16.8373 7.10947 16.7671C7.01324 16.697 6.94175 16.5981 6.90531 16.4847L6.28769 14.5632C6.02851 14.4365 5.77852 14.2918 5.53956 14.1301L3.56519 14.5565C3.44871 14.5813 3.32734 14.5686 3.21857 14.5201C3.1098 14.4715 3.01924 14.3898 2.95994 14.2865L1.40069 11.5876C1.34114 11.4844 1.31592 11.3649 1.32866 11.2464C1.3414 11.1279 1.39144 11.0166 1.47156 10.9283L2.82719 9.42984C2.80755 9.14368 2.80755 8.8565 2.82719 8.57034L1.47156 7.07184C1.39144 6.98363 1.3414 6.87225 1.32866 6.75377C1.31592 6.63529 1.34114 6.51582 1.40069 6.41259L2.95994 3.71259C3.01941 3.60951 3.11004 3.52795 3.2188 3.47964C3.32755 3.43132 3.44883 3.41875 3.56519 3.44372L5.53956 3.87009C5.77806 3.70922 6.02781 3.56409 6.28769 3.43697L6.90644 1.51547C6.94276 1.40245 7.0139 1.30383 7.10969 1.23371C7.20547 1.16359 7.32098 1.12557 7.43969 1.12509H10.5582H10.5593ZM10.1476 2.25009H7.85256L7.21356 4.23797L6.78269 4.44834C6.57087 4.552 6.36639 4.67002 6.17069 4.80159L5.77244 5.07159L3.72944 4.63059L2.58194 6.61959L3.98256 8.16984L3.94881 8.64684C3.93265 8.88206 3.93265 9.11812 3.94881 9.35334L3.98256 9.83034L2.57969 11.3806L3.72831 13.3696L5.77131 12.9297L6.16956 13.1986C6.36527 13.3302 6.56974 13.4482 6.78156 13.5518L7.21244 13.7622L7.85256 15.7501H10.1498L10.7911 13.7611L11.2208 13.5518C11.4324 13.4484 11.6365 13.3304 11.8317 13.1986L12.2288 12.9297L14.2729 13.3696L15.4204 11.3806L14.0187 9.83034L14.0524 9.35334C14.0687 9.11775 14.0687 8.88131 14.0524 8.64572L14.0187 8.16872L15.4216 6.61959L14.2729 4.63059L12.2288 5.06934L11.8317 4.80159C11.6365 4.66976 11.4324 4.55172 11.2208 4.44834L10.7911 4.23909L10.1487 2.25009H10.1476ZM9.00006 5.62509C9.89517 5.62509 10.7536 5.98067 11.3865 6.61361C12.0195 7.24654 12.3751 8.10499 12.3751 9.00009C12.3751 9.8952 12.0195 10.7536 11.3865 11.3866C10.7536 12.0195 9.89517 12.3751 9.00006 12.3751C8.10496 12.3751 7.24651 12.0195 6.61358 11.3866C5.98064 10.7536 5.62506 9.8952 5.62506 9.00009C5.62506 8.10499 5.98064 7.24654 6.61358 6.61361C7.24651 5.98067 8.10496 5.62509 9.00006 5.62509ZM9.00006 6.75009C8.40332 6.75009 7.83103 6.98714 7.40907 7.4091C6.98711 7.83106 6.75006 8.40335 6.75006 9.00009C6.75006 9.59683 6.98711 10.1691 7.40907 10.5911C7.83103 11.013 8.40332 11.2501 9.00006 11.2501C9.5968 11.2501 10.1691 11.013 10.5911 10.5911C11.013 10.1691 11.2501 9.59683 11.2501 9.00009C11.2501 8.40335 11.013 7.83106 10.5911 7.4091C10.1691 6.98714 9.5968 6.75009 9.00006 6.75009Z" fill="white"/>
</svg>
