<svg width="24" height="24" viewBox="0 0 24 24" fill="none" xmlns="http://www.w3.org/2000/svg">
<mask id="mask0_491_3854" style="mask-type:alpha" maskUnits="userSpaceOnUse" x="0" y="0" width="24" height="24">
<path d="M0 0H24V24H0V0Z" fill="#D9D9D9"/>
</mask>
<g mask="url(#mask0_491_3854)">
<path d="M16.5 3.65002C17.8177 3.65002 18.8665 4.08096 19.7178 4.93225C20.5691 5.78354 21 6.83235 21 8.15002C21 8.8019 20.8902 9.43986 20.6689 10.068C20.4543 10.6772 20.0594 11.3924 19.4473 12.2164C18.8358 13.0395 17.9966 13.9893 16.918 15.068C15.8344 16.1516 14.4559 17.4469 12.7803 18.9567L12 19.6559L11.2188 18.9567H11.2197C9.54405 17.4469 8.16562 16.1516 7.08203 15.068C6.00336 13.9893 5.16421 13.0395 4.55273 12.2164C3.94058 11.3924 3.54571 10.6772 3.33105 10.068C3.10978 9.43986 3 8.8019 3 8.15002C3 6.83235 3.43093 5.78354 4.28223 4.93225C5.13352 4.08096 6.18232 3.65002 7.5 3.65002C8.22043 3.65002 8.90045 3.80169 9.55078 4.10608C10.2027 4.41123 10.7634 4.83934 11.2383 5.39807L12 6.29456L12.7617 5.39807C13.2366 4.83934 13.7973 4.41123 14.4492 4.10608C15.0995 3.80169 15.7796 3.65002 16.5 3.65002Z" fill="white" stroke="white" stroke-width="2"/>
</g>
</svg>
