<svg width="15" height="15" viewBox="0 0 15 15" fill="none" xmlns="http://www.w3.org/2000/svg">
<g clip-path="url(#clip0_314_3626)">
<path d="M11.1328 7.5C11.1334 8.3549 10.8322 9.18257 10.2824 9.83721C9.73258 10.4918 8.96937 10.9314 8.12722 11.0786C7.28507 11.2257 6.41803 11.0708 5.67883 10.6414C4.93963 10.2119 4.37571 9.53536 4.08642 8.73089L2.00854 10.3932C2.65465 11.6214 3.69364 12.5977 4.95962 13.1662C6.22561 13.7347 7.64557 13.8626 8.99278 13.5295C10.34 13.1965 11.5368 12.4216 12.392 11.3287C13.2472 10.2357 13.7116 8.88777 13.7109 7.5" fill="#00AC47"/>
<path d="M11.1328 7.5C11.1324 8.07797 10.9938 8.64746 10.7287 9.16103C10.4635 9.67461 10.0795 10.1174 9.60864 10.4525L11.6629 12.0959C12.307 11.516 12.8222 10.8072 13.175 10.0155C13.5278 9.22375 13.7104 8.36676 13.711 7.5" fill="#4285F4"/>
<path d="M3.86719 7.49998C3.86809 7.08006 3.94228 6.66351 4.08642 6.26909L2.00855 4.60681C1.53609 5.49799 1.28906 6.49131 1.28906 7.49998C1.28906 8.50865 1.53609 9.50198 2.00855 10.3932L4.08642 8.73087C3.94228 8.33646 3.86809 7.91991 3.86719 7.49998Z" fill="#FFBA00"/>
<path d="M7.5 3.86719C8.26868 3.86741 9.01722 4.11305 9.63656 4.56835L11.5397 2.79211C10.8332 2.183 9.99831 1.7413 9.09727 1.49997C8.19623 1.25864 7.25233 1.22391 6.33599 1.39838C5.41965 1.57285 4.55455 1.95201 3.80524 2.50757C3.05592 3.06312 2.44175 3.78073 2.00854 4.60683L4.08642 6.26911C4.33983 5.56663 4.80343 4.95923 5.41418 4.52948C6.02493 4.09973 6.75321 3.86849 7.5 3.86719Z" fill="#EA4435"/>
<path d="M13.7109 7.03125V7.5L12.6562 9.14062H7.73438V6.5625H13.2422C13.3665 6.5625 13.4857 6.61189 13.5736 6.69979C13.6616 6.7877 13.7109 6.90693 13.7109 7.03125Z" fill="#4285F4"/>
</g>
<defs>
<clipPath id="clip0_314_3626">
<rect width="15" height="15" fill="white"/>
</clipPath>
</defs>
</svg>
