<svg width="18" height="18" viewBox="0 0 18 18" fill="none" xmlns="http://www.w3.org/2000/svg">
<g clip-path="url(#clip0_226_3110)">
<path d="M5.27344 8.12822H12.7406V8.97197H5.27344V8.12822ZM5.27344 11.8407H9.84375V12.6845H5.27344V11.8407Z" fill="white"/>
<path d="M14.3859 17.2548H3.61406C3.38906 17.2548 3.17813 17.2126 2.96719 17.1282C2.77031 17.0438 2.5875 16.9313 2.44687 16.7767C2.29219 16.622 2.17969 16.4532 2.09531 16.2563C2.01094 16.0454 1.96875 15.8345 1.96875 15.6095V4.40165C1.96875 4.17665 2.01094 3.96572 2.09531 3.75478C2.17969 3.5579 2.29219 3.37509 2.44687 3.23447C2.60156 3.07978 2.77031 2.96728 2.96719 2.8829C3.17813 2.79853 3.38906 2.75634 3.61406 2.75634H5.24531V3.58603H3.61406C3.16406 3.58603 2.78437 3.95165 2.78437 4.41572V15.6235C2.78437 16.0735 3.15 16.4532 3.61406 16.4532H14.3719C14.8219 16.4532 15.2016 16.0876 15.2016 15.6235V4.40165C15.2016 3.95165 14.8359 3.57197 14.3719 3.57197H12.7547V2.74228H14.3859C14.6109 2.74228 14.8219 2.78447 15.0328 2.86884C15.2297 2.95322 15.4125 3.06572 15.5531 3.2204C15.7078 3.37509 15.8203 3.54384 15.9047 3.74072C15.9891 3.95165 16.0312 4.16259 16.0312 4.38759V15.5954C16.0312 15.8204 15.9891 16.0313 15.9047 16.2423C15.8203 16.4392 15.7078 16.622 15.5531 16.7626C15.3984 16.9173 15.2297 17.0298 15.0328 17.1142C14.8219 17.2126 14.6109 17.2548 14.3859 17.2548Z" fill="white"/>
<path d="M13.1345 5.23134H4.86572V2.53134C4.86572 1.95478 5.32979 1.49071 5.90635 1.49071H6.9751C7.35479 0.731339 8.14229 0.239151 9.01416 0.239151C9.88603 0.239151 10.6735 0.731339 11.0532 1.49071H12.122C12.6985 1.49071 13.1626 1.95478 13.1626 2.53134L13.1345 5.23134ZM5.69541 4.40165H12.3188V2.53134C12.3188 2.41884 12.2204 2.3204 12.1079 2.3204H10.4626L10.3642 2.03915C10.1673 1.46259 9.61885 1.06884 9.0001 1.06884C8.38135 1.06884 7.83291 1.46259 7.63604 2.03915L7.5376 2.3204H5.89229C5.77979 2.3204 5.68135 2.41884 5.68135 2.53134V4.40165H5.69541Z" fill="white"/>
</g>
<defs>
<clipPath id="clip0_226_3110">
<rect width="18" height="18" fill="white"/>
</clipPath>
</defs>
</svg>
