<svg width="24" height="24" viewBox="0 0 24 24" fill="none" xmlns="http://www.w3.org/2000/svg">
<path d="M11.9999 3C10.1128 4.93478 7.73199 6 5.00009 6H4.00009L4 9.16611C4 14.8596 7.3994 19.6436 12 21L11.9999 3Z" fill="white"/>
<path d="M11.9999 3C13.8871 4.93485 16.2681 6 19.0001 6C19.1843 6 20 6 20 6C20 6 20 8 20 9.16611C20 14.8596 16.6006 19.6436 12 21M11.9999 3C10.1128 4.93478 7.73199 6 5.00009 6M11.9999 3L12 21M5.00009 6C4.81589 6 4.00009 6 4.00009 6M5.00009 6H4.00009M4.00009 6C4.00009 6 4 8 4 9.16611M4.00009 6L4 9.16611M4 9.16611C4 14.8596 7.3994 19.6436 12 21" stroke="white" stroke-width="2" stroke-linecap="round" stroke-linejoin="round"/>
</svg>
