<svg width="18" height="18" viewBox="0 0 18 18" fill="none" xmlns="http://www.w3.org/2000/svg">
<g clip-path="url(#clip0_226_3099)">
<mask id="mask0_226_3099" style="mask-type:luminance" maskUnits="userSpaceOnUse" x="0" y="0" width="18" height="18">
<path d="M0 9.15527e-05H18V18.0001H0V9.15527e-05Z" fill="white"/>
</mask>
<g mask="url(#mask0_226_3099)">
<path d="M9 2.06259V4.87509M11.25 2.06259V5.43759M7.3125 12.5626V14.8126C7.31248 14.9603 7.34156 15.1066 7.39809 15.2431C7.45461 15.3796 7.53748 15.5037 7.64195 15.6081C7.74642 15.7126 7.87045 15.7955 8.00695 15.852C8.14345 15.9085 8.28976 15.9376 8.4375 15.9376H9.5625C9.86091 15.9376 10.147 15.8191 10.358 15.6081C10.4625 15.5036 10.5453 15.3796 10.6019 15.2431C10.6584 15.1066 10.6875 14.9603 10.6875 14.8126V12.5626M4.5 9.00009V10.8751C4.49998 11.0228 4.52906 11.1691 4.58559 11.3056C4.64211 11.4421 4.72498 11.5662 4.82945 11.6706C4.93392 11.7751 5.05795 11.858 5.19445 11.9145C5.33095 11.971 5.47726 12.0001 5.625 12.0001H12.375C12.6734 12.0001 12.9595 11.8816 13.1705 11.6706C13.275 11.5661 13.3578 11.4421 13.4144 11.3056C13.4709 11.1691 13.5 11.0228 13.5 10.8751V9.01406L4.5 9.00009ZM4.5 9.00009V4.31259C4.5 3.71585 4.73705 3.14356 5.15901 2.7216C5.58097 2.29964 6.15326 2.06259 6.75 2.06259H13.5V9.00009H4.5Z" stroke="white" stroke-linecap="round" stroke-linejoin="round"/>
</g>
</g>
<defs>
<clipPath id="clip0_226_3099">
<rect width="18" height="18" fill="white"/>
</clipPath>
</defs>
</svg>
