<svg width="20" height="20" viewBox="0 0 20 20" fill="none" xmlns="http://www.w3.org/2000/svg">
<g clip-path="url(#clip0_357_3732)">
<path d="M6.66643 8.96667C6.50717 8.96667 6.34606 8.96667 6.18309 8.96667C5.52351 8.94284 4.86607 9.05481 4.25157 9.29564C3.63707 9.53647 3.07862 9.90102 2.61087 10.3667L2.47754 10.5222V15.1222H4.74421V12.5111L5.04976 12.1667L5.18865 12.0056C5.91194 11.2625 6.81242 10.7157 7.80532 10.4167C7.3082 10.0384 6.91614 9.53925 6.66643 8.96667Z" fill="white"/>
<path d="M17.411 10.35C16.9432 9.88436 16.3848 9.51981 15.7703 9.27898C15.1558 9.03814 14.4983 8.92617 13.8387 8.95001C13.6364 8.95059 13.4343 8.96171 13.2332 8.98334C12.9788 9.52051 12.5974 9.98767 12.1221 10.3445C13.1821 10.6377 14.1423 11.2138 14.8998 12.0111L15.0387 12.1667L15.3387 12.5111V15.1278H17.5276V10.5056L17.411 10.35Z" fill="white"/>
<path d="M6.16692 7.88334C6.22803 7.88334 6.27803 7.88334 6.33914 7.88334C6.25912 7.19625 6.37968 6.50069 6.68627 5.88061C6.99286 5.26053 7.47237 4.74245 8.06692 4.38889C7.8514 4.05964 7.55407 3.79201 7.20404 3.6122C6.854 3.43238 6.46327 3.34656 6.07011 3.36313C5.67694 3.3797 5.29482 3.49809 4.96115 3.70671C4.62749 3.91534 4.35373 4.20704 4.16667 4.55325C3.97962 4.89947 3.88569 5.28833 3.89407 5.68175C3.90246 6.07518 4.01287 6.45968 4.21451 6.79762C4.41614 7.13555 4.70209 7.41532 5.04434 7.60954C5.38658 7.80375 5.77341 7.90576 6.16692 7.90556V7.88334Z" fill="white"/>
<path d="M13.5722 7.46666C13.5789 7.59435 13.5789 7.7223 13.5722 7.84999C13.6788 7.86689 13.7865 7.87617 13.8944 7.87777H14C14.3917 7.85688 14.7714 7.7349 15.1021 7.5237C15.4327 7.31251 15.7031 7.01929 15.8868 6.67261C16.0705 6.32593 16.1613 5.93759 16.1503 5.5454C16.1394 5.15321 16.0271 4.77053 15.8243 4.43463C15.6216 4.09873 15.3353 3.82105 14.9934 3.62862C14.6515 3.43619 14.2656 3.33557 13.8733 3.33656C13.4809 3.33754 13.0955 3.4401 12.7546 3.63425C12.4136 3.8284 12.1288 4.10752 11.9277 4.44444C12.4306 4.77273 12.844 5.22072 13.131 5.7482C13.418 6.27568 13.5696 6.86615 13.5722 7.46666Z" fill="white"/>
<path d="M9.92767 9.95556C11.2992 9.95556 12.411 8.84373 12.411 7.47222C12.411 6.10072 11.2992 4.98889 9.92767 4.98889C8.55616 4.98889 7.44434 6.10072 7.44434 7.47222C7.44434 8.84373 8.55616 9.95556 9.92767 9.95556Z" fill="white"/>
<path d="M10.0615 11.2778C9.33601 11.2485 8.61206 11.3663 7.93323 11.6241C7.25441 11.8818 6.63475 12.2743 6.11155 12.7778L5.97266 12.9333V16.45C5.97482 16.5645 5.99954 16.6775 6.04539 16.7825C6.09123 16.8875 6.15732 16.9825 6.23986 17.0619C6.32241 17.1414 6.4198 17.2038 6.52647 17.2456C6.63314 17.2874 6.747 17.3078 6.86155 17.3056H13.2449C13.3594 17.3078 13.4733 17.2874 13.58 17.2456C13.6866 17.2038 13.784 17.1414 13.8666 17.0619C13.9491 16.9825 14.0152 16.8875 14.061 16.7825C14.1069 16.6775 14.1316 16.5645 14.1338 16.45V12.9444L14.0004 12.7778C13.4806 12.2727 12.8631 11.8792 12.1858 11.6212C11.5085 11.3633 10.7856 11.2464 10.0615 11.2778Z" fill="white"/>
</g>
<defs>
<clipPath id="clip0_357_3732">
<rect width="20" height="20" fill="white"/>
</clipPath>
</defs>
</svg>
