<?xml version="1.0" encoding="utf-8" ?><svg xmlns="http://www.w3.org/2000/svg" xmlns:xlink="http://www.w3.org/1999/xlink" width="1792" height="576" viewBox="0 0 1792 576"><path fill="#1357B2" d="M837.981 224.492C839.072 224.424 840.165 224.383 841.259 224.368C864.043 224.067 886.914 232.459 903.299 248.446C922.493 267.173 932.864 294.084 933.187 320.713C933.518 348.137 922.501 376.999 903.27 396.661C886.914 413.385 865.532 422.437 842.203 422.613C818.153 422.795 800.75 413.837 784.047 397.341L784.153 429.374C784.159 438.605 785.949 476.477 782.444 481.668C778.37 483.903 742.962 482.894 737.738 481.407C735.764 479.232 736.069 475.316 735.937 472.378C734.562 441.752 735.852 410.493 735.877 379.815C735.916 330.752 735.357 281.624 735.976 232.567C736.367 232.012 736.825 231.518 737.419 231.179C743.819 227.528 775.463 227.965 782.64 230.293C786.167 234.419 784.709 244.569 784.634 249.888C800.534 233.926 815.426 226.244 837.981 224.492ZM842.473 375.285C855.697 372.344 866.534 365.453 873.852 353.87C882.228 340.613 884.074 322.871 880.634 307.755C877.6 294.419 869.962 282.799 858.252 275.554C847.524 268.915 836.88 268.212 824.666 268.82C810.482 272.252 798.651 279.4 790.947 292.117C782.648 305.814 781.135 323.431 785.001 338.802C788.221 351.604 796.021 362.779 807.461 369.504C818.23 375.834 830.294 377.199 842.473 375.285Z"/><path fill="#1357B2" d="M614.586 222.942C669.802 222 715.409 265.855 716.653 321.089C717.897 376.324 674.311 422.189 619.108 423.736C563.477 425.295 517.197 381.277 515.944 325.614C514.69 269.951 558.941 223.892 614.586 222.942ZM625.977 375.032C654.704 369.79 673.682 342.163 668.277 313.454C662.872 284.745 635.148 265.919 606.483 271.492C578.051 277.02 559.42 304.482 564.781 332.957C570.142 361.432 597.483 380.231 625.977 375.032Z"/><path fill="#1357B2" d="M1607.03 224.482C1629.19 223.319 1652.71 230.445 1669.94 244.371C1689.92 260.855 1702.55 284.6 1705.06 310.392C1705.81 317.655 1707.9 332.168 1703.18 338.002C1697.03 341.381 1582.18 339.588 1566.35 339.017C1568.39 346.194 1570.93 352.835 1575.41 358.866C1583.24 369.398 1595.27 375.944 1608.17 377.789C1621.64 379.716 1636.1 376.103 1646.66 367.437C1651.33 363.599 1655.35 359.137 1660.2 355.468C1667.9 358.211 1675.43 362.163 1682.87 365.579C1686.78 367.265 1692.49 369.033 1695.75 371.656C1697.33 372.931 1698.26 374.393 1698.46 376.423C1698.99 381.484 1692.22 389.007 1689.11 392.576C1672.73 411.376 1649.37 420.894 1624.89 422.543C1597.17 424.41 1568.24 417.304 1547.05 398.647C1527.79 381.701 1517.66 356.625 1516.11 331.367C1514.38 303.317 1522.33 276.466 1541.14 255.238C1558.16 236.023 1581.75 226.013 1607.03 224.482ZM1567.78 301.196L1615.86 301.146C1628.99 301.134 1642.14 300.979 1655.27 301.169C1651.71 288.684 1646.11 278.767 1634.38 272.298C1626.52 267.959 1618.29 266.536 1609.41 266.493C1596.57 267.902 1585.04 272.097 1576.74 282.456C1572.26 288.041 1569.61 294.328 1567.78 301.196Z"/><path fill="#1357B2" d="M1031.23 225.277C1034.32 224.951 1037.41 224.734 1040.51 224.626C1064.87 223.967 1088.68 231.899 1106.54 248.885C1127.9 269.204 1136.72 296.904 1137.35 325.767C1137.43 329.284 1137.51 335.016 1134.85 337.675C1133.36 339.166 1131.71 339.333 1129.68 339.512C1115.29 340.783 1099.75 339.643 1085.24 339.633C1055.26 339.7 1025.29 339.597 995.314 339.325C997.943 348.477 1001.73 356.823 1008.38 363.785C1017.74 373.584 1030.81 378.687 1044.25 378.957C1066 379.393 1076.49 369.456 1091 355.622C1096.53 357.432 1101.84 360.283 1107.1 362.777C1112.61 365.729 1119.37 367.458 1124.43 371.012C1126.3 372.319 1128.15 374.156 1128.49 376.513C1129.06 380.464 1124.91 385.982 1122.66 388.989C1108.31 408.201 1084.93 418.23 1061.77 421.56C1035.28 425.368 1006.15 420.145 984.507 403.821C963.795 388.202 950.742 364.369 947.217 338.806C943.255 311.502 950.412 283.749 967.083 261.771C983.018 240.779 1005.42 228.777 1031.23 225.277ZM996.845 301.148L1049.51 301.123L1087.99 301.072C1083.76 287.774 1077.35 277.09 1064.48 270.516C1055.65 266 1045.46 264.54 1035.64 265.561C1021.92 268.794 1010.42 274.317 1002.73 286.716C999.937 291.224 998.23 296.056 996.845 301.148Z"/><path fill="#1357B2" d="M1236.96 224.499C1248.21 224.124 1259.31 225.139 1270.2 228.036C1288.05 232.785 1305.02 242.15 1314.49 258.601C1319.11 266.612 1321.6 275.602 1322.79 284.725C1324.61 298.674 1325.07 405.906 1322.61 415.16C1320.89 416.623 1318.05 416.7 1315.87 416.81C1309.66 417.126 1280.29 418.215 1276.87 414.98C1273.92 412.186 1275.34 401.81 1275.21 397.799C1266.9 405.573 1258.7 412.448 1248.02 416.85C1229.73 424.39 1205.61 424.066 1187.41 416.321C1172.11 409.811 1161.87 398.735 1155.76 383.46C1154.42 378.77 1153.57 373.955 1153.23 369.091C1152.13 354.367 1154.74 340.083 1164.68 328.691C1186.91 303.2 1243.19 303.449 1274.67 301.166C1274.82 290.714 1275.23 280.157 1267.47 272.16C1261.28 265.78 1252.56 263.237 1243.86 263.151C1231.75 263.031 1218.5 266.906 1210.95 276.863C1207.46 281.46 1204.5 286.631 1200.37 290.681C1198.57 291.268 1196.83 290.725 1195.06 290.281C1188.96 288.745 1161.75 280.064 1159.05 275.57C1159.34 266.721 1167.51 256.311 1173.35 249.878C1189.8 231.754 1213.48 225.699 1236.96 224.499ZM1214.92 381.258C1225.79 385.187 1237.78 384.609 1248.22 379.654C1258.57 374.79 1267.99 365.883 1271.92 354.976C1274.37 348.194 1274.26 341.615 1274.2 334.529L1265.37 334.768C1248.38 335.829 1219.78 335.04 1207.65 348.598C1203.79 352.923 1202.04 358.442 1202.39 364.217C1202.72 369.542 1205.01 373.751 1209 377.231C1210.82 378.824 1212.82 380.075 1214.92 381.258Z"/><path fill="#1357B2" d="M322.765 157.932C332.022 158.028 357.405 155.982 364.627 159.676C368.414 166.963 366.509 235.14 366.505 249.104C383.895 232.887 400.479 223.763 424.957 224.422C443.99 224.934 463.453 230.227 476.866 244.478C485.149 253.278 490.394 264.188 493.081 275.912C497.83 296.629 495.887 320.046 495.881 341.199C495.875 366.262 496.23 391.4 495.535 416.453C488.107 417.122 452.962 418.59 447.915 415.212C444.118 406.303 446.179 350.142 446.154 337.174C446.198 328.392 446.341 319.577 446.068 310.799C445.697 298.884 443.213 285.927 434.099 277.469C426.534 270.45 415.985 268.11 405.908 268.492C364.403 270.064 366.475 313.743 366.5 343.849C366.493 360.615 366.58 377.382 366.763 394.148C366.82 400.284 368.283 411.615 363.96 416.267C355.271 417.599 326.759 418.416 318.937 415.614C315.824 403.32 317.66 376.688 317.661 363.237L317.708 256.223L317.672 194.459C317.66 183.186 316.828 171.297 318.203 160.124C319.242 158.644 321.104 158.405 322.765 157.932Z"/><path fill="#1357B2" d="M211.828 224.461C229.112 223.806 246.897 226.623 262.287 234.761C272.675 240.255 285.003 250.807 288.373 262.611C288.913 264.502 289.057 266.075 288.112 267.844C282.207 272.177 262.444 280.143 255.263 280.366C249.812 280.535 244.591 272.88 240.943 269.37C234.775 263.435 226.484 261.683 218.151 261.795C209.677 261.909 200.878 263.043 194.774 269.552C192.137 272.364 190.808 276.029 190.931 279.875C191.585 300.276 237.73 303.337 253.013 307.862C263.981 311.109 274.729 315.764 283.018 323.87C292.504 333.147 295.926 344.966 295.99 357.977C296.069 373.826 290.666 389.931 279.322 401.269C261.896 418.688 236.951 422.009 213.559 421.938C196.259 421.458 177.738 416.692 163.557 406.558C155.654 400.909 143.791 388.869 142.301 378.844C142.183 378.054 141.902 377.075 142.404 376.424C146.269 371.414 170.481 360.925 177.15 360.324C182.503 359.84 188.144 371.191 191.994 374.618C200.197 381.922 212.41 383.93 223.049 383.194C230.535 382.676 238.994 380.092 244.019 374.198C246.97 370.737 248.778 366.031 248.328 361.449C246.625 344.134 200.047 340.657 185.72 336.445C175.956 333.575 166.403 329.323 158.602 322.669C148.447 314.007 143.334 302.614 142.361 289.412C141.242 274.23 145.315 258.805 155.41 247.194C170.038 230.37 190.674 225.969 211.828 224.461Z"/><path fill="#1357B2" d="M1412.4 224.46C1425.42 223.371 1439.4 224.673 1451.91 228.476C1468.75 233.59 1483.34 243.76 1491.66 259.518C1492.97 261.984 1494.02 264.213 1493.15 267.026C1488.23 272.733 1466.65 279.01 1458.91 281.99C1455.13 278.148 1451.62 274.028 1447.79 270.244C1441.48 264.005 1429.85 261.913 1421.33 261.936C1413.25 261.958 1403.35 264.491 1397.57 270.5C1395.47 272.681 1394.29 275.298 1394.44 278.358C1395.56 299.766 1436.91 302.171 1452.92 306.579C1464.73 309.83 1476.59 314.146 1485.76 322.572C1495.28 331.314 1499.39 342.439 1499.89 355.195C1500.52 371.294 1495.49 388.105 1484.39 400.029C1469.89 415.6 1446.56 421.214 1426.12 421.985C1416.85 422.111 1407.59 421.222 1398.51 419.334C1378.61 415.027 1361.78 405.109 1350.67 387.693C1348.47 384.234 1346.15 380.145 1347.09 375.923C1351.92 370.36 1373.37 361.87 1380.94 359.742C1387.21 360.891 1391.46 370.293 1396.09 374.407C1404.53 381.92 1416.27 383.23 1427.12 382.551C1434.52 382.087 1443.42 379.766 1448.43 373.868C1451.29 370.501 1452.96 365.689 1452.54 361.283C1450.89 343.622 1406.51 340.911 1392.69 337.062C1382.56 334.24 1372.59 330.167 1364.45 323.354C1354.68 315.12 1348.58 303.344 1347.49 290.612C1346.05 274.153 1349.95 259.882 1360.61 247.244C1373.76 231.655 1392.83 226.068 1412.4 224.46Z"/><path fill="#1357B2" d="M734.171 69.4676C753.924 66.8861 776.239 70.6697 793.762 80.1036C817.529 92.8988 834.137 115.49 841.828 141.106C844.986 151.625 850.237 182.363 845.533 191.127C840.264 194.179 807.854 192.735 800.333 191.943C800.662 174.295 801.471 156.646 792.464 140.681C785.477 128.295 774.234 120.34 760.664 116.58C760.301 116.492 759.942 116.411 759.576 116.337C745.719 113.55 731.404 115.043 719.442 123.029C704.23 133.185 696.086 151.62 695.016 169.488C694.592 176.573 695.339 184.073 693.938 191.034C693.246 191.405 692.576 191.682 691.808 191.85C685.715 193.179 654.442 193.92 650.047 191.18C649.213 189.697 648.706 188.205 648.472 186.519C647.686 180.859 648.29 174.698 648.676 169.009C650.252 145.804 656.311 124.734 670.632 106.051C686.408 85.4689 708.472 72.8731 734.171 69.4676Z"/></svg>